<?xml version="1.0" encoding="utf-8"?>
<!-- Generator: Adobe Illustrator 19.2.0, SVG Export Plug-In . SVG Version: 6.00 Build 0)  -->
<svg version="1.1" id="レイヤー_1" xmlns="http://www.w3.org/2000/svg" xmlns:xlink="http://www.w3.org/1999/xlink" x="0px"
	 y="0px" width="600px" height="600px" viewBox="0 0 600 600" enable-background="new 0 0 600 600" xml:space="preserve">
<path d="M550,404.2c0,4.3-1.7,8.2-5,11.5l-25,25c-3.3,3.3-7.2,5-11.5,5s-8.2-1.7-11.5-5L300,243.8l-196.9,197c-3.3,3.3-7.2,5-11.5,5
	s-8.2-1.7-11.5-5l-25-25c-3.3-3.3-5-7.2-5-11.5s1.7-8.2,5-11.5l233.5-233.5c3.3-3.3,7.2-5,11.5-5s8.2,1.7,11.5,5L545,392.7
	C548.3,396,550,399.9,550,404.2z"/>
</svg>
