<?xml version="1.0" encoding="utf-8"?>
<!-- Generator: Adobe Illustrator 19.2.0, SVG Export Plug-In . SVG Version: 6.00 Build 0)  -->
<svg version="1.1" id="レイヤー_1" xmlns="http://www.w3.org/2000/svg" xmlns:xlink="http://www.w3.org/1999/xlink" x="0px"
	 y="0px" width="600px" height="600px" viewBox="0 0 600 600" enable-background="new 0 0 600 600" xml:space="preserve">
<path d="M445.8,91.6c0,4.3-1.7,8.2-5,11.5L243.8,300l196.9,196.9c3.3,3.3,5,7.2,5,11.5c0,4.3-1.7,8.2-5,11.5l-25,25
	c-3.3,3.3-7.2,5-11.5,5s-8.2-1.7-11.5-5L159.2,311.5c-3.3-3.3-5-7.2-5-11.5s1.7-8.2,5-11.5L392.7,55c3.3-3.3,7.2-5,11.5-5
	s8.2,1.7,11.5,5l25,25C444.1,83.4,445.8,87.2,445.8,91.6z"/>
</svg>
