<?xml version="1.0" encoding="utf-8"?>
<!-- Generator: Adobe Illustrator 20.0.0, SVG Export Plug-In . SVG Version: 6.00 Build 0)  -->
<svg version="1.1" id="レイヤー_1" xmlns="http://www.w3.org/2000/svg" xmlns:xlink="http://www.w3.org/1999/xlink" x="0px"
	 y="0px" width="500px" height="500px" viewBox="0 0 500 500" enable-background="new 0 0 500 500" xml:space="preserve">
<path d="M428.6,280.2v148.9c0,5.4-2,10-5.9,14s-8.6,5.9-14,5.9H289.7V329.9h-79.4v119.1H91.2c-5.4,0-10-2-14-5.9s-5.9-8.6-5.9-14
	V280.2c0-0.2,0.1-0.5,0.2-0.9c0.1-0.4,0.2-0.7,0.2-0.9l178.3-147l178.3,147C428.5,278.8,428.6,279.4,428.6,280.2z M497.8,258.8
	l-19.2,22.9c-1.7,1.9-3.8,3-6.5,3.4h-0.9c-2.7,0-4.9-0.7-6.5-2.2L250,104.1L35.4,283c-2.5,1.7-5,2.4-7.4,2.2
	c-2.7-0.4-4.9-1.6-6.5-3.4L2.2,258.8c-1.7-2.1-2.4-4.5-2.2-7.3c0.2-2.8,1.3-5,3.4-6.7l223-185.8c6.6-5.4,14.5-8.1,23.6-8.1
	s17,2.7,23.6,8.1l75.7,63.3V61.9c0-2.9,0.9-5.3,2.8-7.1c1.9-1.9,4.2-2.8,7.1-2.8h59.5c2.9,0,5.3,0.9,7.1,2.8
	c1.9,1.9,2.8,4.2,2.8,7.1v126.5l67.9,56.4c2.1,1.7,3.2,3.9,3.4,6.7C500.2,254.3,499.4,256.8,497.8,258.8z"/>
</svg>
