<?xml version="1.0" encoding="utf-8"?>
<!-- Generator: Adobe Illustrator 19.2.0, SVG Export Plug-In . SVG Version: 6.00 Build 0)  -->
<svg version="1.1" id="question_x5F_answer" xmlns="http://www.w3.org/2000/svg" xmlns:xlink="http://www.w3.org/1999/xlink"
	 x="0px" y="0px" width="600px" height="600px" viewBox="0 0 600 600" style="enable-background:new 0 0 600 600;"
	 xml:space="preserve">
<path d="M550,183.2c0,8.6-3,15.9-9,21.9L263.5,482.6c-6,6-13.3,9-21.9,9c-8.6,0-15.9-3-21.9-9L59,321.9c-6-6-9-13.3-9-21.9
	c0-8.6,3-15.9,9-21.9l43.9-43.9c6-6,13.3-9,21.9-9s15.9,3,21.9,9l94.8,95.2l211.6-211.9c6-6,13.3-9,21.9-9c8.6,0,15.9,3,21.9,9
	l43.9,43.9C547,167.3,550,174.6,550,183.2z"/>
</svg>
